Normalized EMG Linear Envelopes
nRows=217
nColumns=4

endheader
time	 med_gas_r	  soleus_r	 tib_ant_r	
2.96069	  0.009194	  0.006400	  0.001796	
2.99395	  0.009164	  0.006167	  0.001782	
3.02722	  0.008908	  0.005910	  0.001786	
3.06048	  0.008527	  0.005699	  0.001818	
3.09375	  0.008154	  0.005640	  0.001883	
3.12702	  0.007863	  0.005836	  0.001984	
3.16028	  0.007655	  0.006380	  0.002112	
3.19355	  0.007531	  0.007359	  0.002243	
3.22681	  0.007505	  0.008863	  0.002347	
3.26008	  0.007593	  0.010956	  0.002390	
3.29335	  0.007797	  0.013626	  0.002351	
3.32661	  0.008140	  0.016743	  0.002254	
3.35988	  0.008599	  0.019980	  0.002133	
3.39315	  0.009092	  0.022755	  0.002014	
3.42641	  0.009518	  0.024111	  0.001915	
3.45968	  0.009794	  0.023234	  0.001844	
3.49294	  0.009923	  0.020781	  0.001802	
3.52621	  0.009918	  0.017687	  0.001780	
3.55948	  0.009762	  0.014616	  0.001772	
3.59274	  0.009456	  0.011918	  0.001773	
3.62601	  0.009043	  0.009702	  0.001774	
3.65927	  0.008563	  0.007974	  0.001773	
3.69254	  0.008107	  0.006710	  0.001772	
3.72581	  0.007737	  0.005869	  0.001776	
3.75907	  0.007487	  0.005406	  0.001784	
3.79234	  0.007358	  0.005298	  0.001795	
3.8256	  0.007343	  0.005537	  0.001808	
3.85887	  0.007405	  0.006123	  0.001821	
3.89214	  0.007490	  0.007105	  0.001833	
3.9254	  0.007588	  0.008531	  0.001844	
3.95867	  0.007724	  0.010430	  0.001859	
3.99194	  0.007894	  0.012750	  0.001884	
4.0252	  0.008090	  0.015379	  0.001922	
4.05847	  0.008359	  0.018138	  0.001977	
4.09173	  0.008728	  0.020606	  0.002045	
4.125	  0.009162	  0.022027	  0.002125	
4.15827	  0.009597	  0.021947	  0.002213	
4.19153	  0.010034	  0.020962	  0.002302	
4.2248	  0.010433	  0.019602	  0.002384	
4.25806	  0.010640	  0.018028	  0.002437	
4.29133	  0.010521	  0.016260	  0.002425	
4.3246	  0.010157	  0.014538	  0.002303	
4.35786	  0.009712	  0.013048	  0.002021	
4.39113	  0.009333	  0.011871	  0.001534	
4.4244	  0.009076	  0.010944	  0.000801	
4.45766	  0.008925	  0.010178	 -0.000197	
4.49093	  0.008826	  0.009587	 -0.001422	
4.52419	  0.008730	  0.009144	 -0.002742	
4.55746	  0.008635	  0.008798	 -0.003907	
4.59073	  0.008577	  0.008550	 -0.004491	
4.62399	  0.008635	  0.008537	 -0.003883	
4.65726	  0.008893	  0.008881	 -0.001259	
4.69052	  0.009370	  0.009667	  0.004409	
4.72379	  0.010030	  0.011021	  0.014276	
4.75706	  0.010852	  0.013184	  0.029462	
4.79032	  0.011877	  0.016334	  0.050753	
4.82359	  0.013144	  0.020633	  0.078185	
4.85685	  0.014664	  0.026165	  0.110506	
4.89012	  0.016428	  0.032859	  0.145631	
4.92339	  0.018423	  0.040665	  0.180872	
4.95665	  0.020522	  0.049157	  0.211929	
4.98992	  0.022578	  0.057556	  0.235787	
5.02319	  0.024506	  0.065075	  0.251308	
5.05645	  0.026210	  0.071116	  0.258752	
5.08972	  0.027531	  0.075156	  0.259742	
5.12298	  0.028417	  0.077110	  0.258746	
5.15625	  0.029066	  0.078054	  0.259667	
5.18952	  0.029555	  0.078539	  0.262925	
5.22278	  0.029928	  0.078642	  0.268060	
5.25605	  0.030298	  0.078933	  0.275663	
5.28931	  0.030550	  0.079403	  0.284729	
5.32258	  0.030651	  0.080173	  0.294482	
5.35585	  0.030641	  0.081782	  0.303343	
5.38911	  0.030392	  0.083798	  0.307150	
5.42238	  0.029768	  0.085306	  0.304656	
5.45565	  0.028719	  0.085934	  0.295503	
5.48891	  0.027411	  0.086116	  0.281706	
5.52218	  0.025985	  0.085992	  0.265646	
5.55544	  0.024568	  0.084862	  0.248019	
5.58871	  0.023393	  0.082443	  0.231224	
5.62198	  0.022635	  0.078867	  0.216718	
5.65524	  0.022217	  0.074443	  0.204954	
5.68851	  0.022020	  0.070256	  0.197001	
5.72177	  0.021898	  0.066902	  0.192438	
5.75504	  0.021794	  0.064289	  0.189918	
5.78831	  0.021797	  0.062355	  0.187873	
5.82157	  0.022000	  0.061131	  0.185951	
5.85484	  0.022415	  0.060546	  0.184578	
5.8881	  0.023082	  0.060738	  0.185737	
5.92137	  0.023940	  0.061602	  0.190804	
5.95464	  0.024795	  0.062512	  0.199328	
5.9879	  0.025462	  0.063003	  0.209521	
6.02117	  0.025988	  0.063616	  0.221796	
6.05444	  0.026443	  0.064810	  0.235476	
6.0877	  0.026831	  0.066444	  0.247655	
6.12097	  0.027082	  0.068265	  0.256017	
6.15423	  0.027118	  0.070049	  0.259737	
6.1875	  0.026938	  0.071731	  0.260361	
6.22077	  0.026599	  0.073209	  0.260091	
6.25403	  0.026270	  0.074637	  0.260326	
6.2873	  0.026086	  0.076038	  0.261411	
6.32056	  0.026105	  0.076887	  0.262861	
6.35383	  0.026281	  0.076818	  0.264102	
6.3871	  0.026428	  0.075957	  0.265298	
6.42036	  0.026409	  0.074591	  0.265730	
6.45363	  0.026209	  0.072842	  0.265009	
6.4869	  0.025925	  0.070764	  0.263646	
6.52016	  0.025652	  0.068809	  0.261693	
6.55343	  0.025445	  0.067181	  0.259385	
6.58669	  0.025238	  0.065769	  0.258237	
6.61996	  0.025005	  0.064229	  0.257667	
6.65323	  0.024801	  0.062494	  0.257004	
6.68649	  0.024617	  0.060908	  0.255849	
6.71976	  0.024438	  0.059906	  0.254610	
6.75302	  0.024337	  0.059722	  0.254003	
6.78629	  0.024376	  0.060191	  0.253741	
6.81956	  0.024510	  0.061179	  0.253336	
6.85282	  0.024664	  0.062572	  0.252274	
6.88609	  0.024799	  0.063989	  0.250423	
6.91935	  0.024785	  0.065094	  0.249675	
6.95262	  0.024609	  0.065477	  0.250549	
6.98589	  0.024409	  0.064922	  0.252280	
7.01915	  0.024261	  0.063823	  0.253729	
7.05242	  0.024095	  0.062521	  0.253952	
7.08569	  0.023829	  0.061051	  0.252680	
7.11895	  0.023500	  0.059477	  0.250057	
7.15222	  0.023199	  0.058092	  0.246293	
7.18548	  0.023002	  0.056871	  0.242570	
7.21875	  0.022953	  0.055611	  0.239824	
7.25202	  0.023006	  0.054357	  0.237114	
7.28528	  0.023100	  0.053217	  0.233644	
7.31855	  0.023313	  0.052570	  0.230427	
7.35181	  0.023661	  0.052854	  0.228676	
7.38508	  0.024102	  0.054265	  0.229484	
7.41835	  0.024552	  0.056714	  0.232894	
7.45161	  0.024917	  0.059728	  0.238033	
7.48488	  0.025250	  0.062743	  0.244952	
7.51815	  0.025537	  0.065395	  0.252871	
7.55141	  0.025691	  0.067526	  0.260708	
7.58468	  0.025704	  0.069171	  0.267661	
7.61794	  0.025682	  0.070699	  0.273410	
7.65121	  0.025732	  0.071968	  0.278329	
7.68448	  0.025862	  0.072874	  0.282431	
7.71774	  0.026045	  0.073303	  0.285623	
7.75101	  0.026164	  0.073218	  0.287775	
7.78427	  0.026133	  0.072698	  0.288613	
7.81754	  0.026072	  0.071979	  0.289004	
7.85081	  0.026104	  0.071099	  0.289324	
7.88407	  0.026300	  0.069954	  0.288950	
7.91734	  0.026619	  0.068712	  0.288213	
7.9506	  0.026935	  0.067536	  0.285805	
7.98387	  0.027220	  0.066784	  0.281186	
8.01714	  0.027520	  0.067176	  0.275467	
8.0504	  0.027823	  0.069048	  0.270448	
8.08367	  0.028053	  0.072013	  0.268028	
8.11694	  0.028147	  0.075194	  0.269974	
8.1502	  0.028045	  0.077903	  0.276507	
8.18347	  0.027779	  0.079689	  0.287376	
8.21673	  0.027541	  0.080721	  0.302115	
8.25	  0.027558	  0.081467	  0.318490	
8.28327	  0.027958	  0.082432	  0.333324	
8.31653	  0.028687	  0.083816	  0.344151	
8.3498	  0.029591	  0.085484	  0.351071	
8.38306	  0.030509	  0.086946	  0.354520	
8.41633	  0.031271	  0.087642	  0.355243	
8.4496	  0.031807	  0.087511	  0.353451	
8.48286	  0.032104	  0.086668	  0.349585	
8.51613	  0.032163	  0.084945	  0.343817	
8.5494	  0.032042	  0.082842	  0.337789	
8.58266	  0.031763	  0.080785	  0.332636	
8.61593	  0.031267	  0.079349	  0.329141	
8.64919	  0.030492	  0.078910	  0.325857	
8.68246	  0.029511	  0.079190	  0.322347	
8.71573	  0.028436	  0.079811	  0.318458	
8.74899	  0.027344	  0.080483	  0.313978	
8.78226	  0.026412	  0.080863	  0.309645	
8.81552	  0.025804	  0.080834	  0.304768	
8.84879	  0.025551	  0.080542	  0.299610	
8.88206	  0.025556	  0.080380	  0.294897	
8.91532	  0.025812	  0.080477	  0.291444	
8.94859	  0.026293	  0.080846	  0.290296	
8.98185	  0.026864	  0.081115	  0.291249	
9.01512	  0.027334	  0.081171	  0.293733	
9.04839	  0.027652	  0.081504	  0.297076	
9.08165	  0.027713	  0.082591	  0.300489	
9.11492	  0.027481	  0.084573	  0.304152	
9.14819	  0.027043	  0.087497	  0.307579	
9.18145	  0.026357	  0.090910	  0.308498	
9.21472	  0.025400	  0.093527	  0.305953	
9.24798	  0.024317	  0.094172	  0.299301	
9.28125	  0.023135	  0.091685	  0.285440	
9.31452	  0.021813	  0.085410	  0.261597	
9.34778	  0.020360	  0.075758	  0.228200	
9.38105	  0.018827	  0.064126	  0.187322	
9.41431	  0.017310	  0.051897	  0.143235	
9.44758	  0.015947	  0.040414	  0.101512	
9.48085	  0.014813	  0.030544	  0.066163	
9.51411	  0.013935	  0.022484	  0.038818	
9.54738	  0.013294	  0.016167	  0.019410	
9.58065	  0.012857	  0.011731	  0.006885	
9.61391	  0.012575	  0.009231	 -0.000248	
9.64718	  0.012396	  0.008704	 -0.003489	
9.68044	  0.012290	  0.010215	 -0.004161	
9.71371	  0.012224	  0.013817	 -0.003355	
9.74698	  0.012227	  0.019490	 -0.001859	
9.78024	  0.012347	  0.027021	 -0.000205	
9.81351	  0.012610	  0.035958	  0.001291	
9.84677	  0.013008	  0.045811	  0.002476	
9.88004	  0.013535	  0.055639	  0.003336	
9.91331	  0.014136	  0.064783	  0.003917	
9.94657	  0.014717	  0.073737	  0.004283	
9.97984	  0.015150	  0.082445	  0.004517	
10.0131	  0.015479	  0.090114	  0.004686	
10.0464	  0.015696	  0.095134	  0.004825	
10.0796	  0.015761	  0.096698	  0.004942	
10.1129	  0.015798	  0.096188	  0.005028	
10.1462	  0.015757	  0.094601	  0.005057	
